<svg xmlns="http://www.w3.org/2000/svg" style="-webkit-print-color-adjust:exact" viewBox="0 0 500 131.47">
  <path fill="currentColor" d="M54.87.201c-8.672.845-15.71 2.903-23.464 6.836C24.35 10.62 18.544 15.379 13.528 21.7 6.729 30.3 2.54 40.424.83 52.477.059 57.971-.235 67.527.206 73.26c.919 11.705 3.804 21.609 8.765 30.025 7.625 12.899 18.87 21.461 33.773 25.688 9.738 2.774 22.27 3.27 32.89 1.323 14.37-2.646 26.68-10.4 35.188-22.142 4.833-6.652 8.287-15.49 9.096-23.17l.128-1.213-17.51-.092c-11.834-.074-17.567-.037-17.659.092-.055.11-.165.57-.239 1.01-.312 2.077-1.746 5.55-3.197 7.754-1.03 1.58-3.436 3.97-5.09 5.072-3.657 2.425-7.313 3.491-12.752 3.693-5.09.184-9.26-.661-13.322-2.683-8.47-4.226-13.34-13.284-14.442-26.937-.276-3.491-.11-11.723.294-14.59 1.157-8.342 3.73-14.644 7.79-19.22 3.896-4.373 8.967-6.908 15.27-7.643 2.628-.294 7.093-.13 9.426.367 3.62.772 7.387 2.646 9.904 4.943 2.26 2.095 4.116 5.071 5.164 8.305.57 1.728.753 2.554 1.139 4.998l.11.698h35.114l-.11-1.065c-.919-8.03-2.444-13.506-5.439-19.606-4.74-9.629-12.146-17.089-21.958-22.087C85.832 3.362 79.291 1.432 70.95.367 67.733-.038 58.27-.13 54.87.2zm80.758 65.506v64.128h34.728V79.672h46.305v50.163h34.544V1.58h-34.544v50.163h-46.305V1.58h-34.728zm150.214-2.995c-11.098 33.644-20.617 62.493-21.15 64.147l-.955 2.976h37.374l3.29-10.878c1.8-5.99 3.472-11.539 3.711-12.33l.441-1.414h42.409l.441 1.415c.239.79 1.911 6.34 3.712 12.33l3.289 10.877h37.393l-.258-.79c-.349-1.047-15.692-47.572-30.116-91.304-6.523-19.79-11.87-36.015-11.87-36.07 0-.055-10.694-.092-23.759-.092h-23.758zm44.632-25.54c4.135 13.725 12.44 41.342 12.532 41.673l.11.46H316.4l.11-.423c.056-.22 2.867-9.628 6.266-20.892 3.4-11.264 6.21-20.635 6.266-20.819.074-.22.294-.312.717-.312.422 0 .643.092.716.312zm58.175-21.628V29.51h38.587v100.326h34.177V29.51H500V1.579H388.649z"/>
</svg>
